<svg width="396" height="100" viewBox="0 0 396 100" fill="none" xmlns="http://www.w3.org/2000/svg">
<path d="M241.07 0C268.68 0 291.07 22.39 291.07 50C291.07 77.61 268.68 100 241.07 100C213.46 100 191.07 77.61 191.07 50C191.07 22.39 213.46 0 241.07 0ZM345.07 0C372.68 0 395.07 22.39 395.07 50C395.07 77.61 372.68 100 345.07 100C317.46 100 295.07 77.61 295.07 50C295.07 22.39 317.46 0 345.07 0ZM24.5231 2C24.8429 2.00015 25.1428 2.15028 25.3327 2.41016L47.0426 32.1699L68.7428 2.41016C68.9328 2.15022 69.2325 2.00007 69.5524 2H93.0729C93.8827 2.00021 94.3624 2.92992 93.8825 3.58984L60.0329 50L93.8727 96.4102C94.3526 97.0701 93.8821 98 93.0622 98H69.5426C69.2227 98 68.9231 97.8498 68.7331 97.5898L47.0329 67.8301L25.3327 97.5898C25.1428 97.8497 24.8429 97.9999 24.5231 98H1.0026C0.192621 98 -0.286964 97.0701 0.193028 96.4102L34.0329 50L0.193028 3.58984C-0.286964 2.92985 0.182622 2.00003 1.0026 2H24.5231ZM147.039 2C165.819 2 181.039 17.22 181.039 36C181.039 49.3799 173.309 60.95 162.069 66.5L183.879 96.4102C184.359 97.0701 183.889 97.9998 183.069 98H159.548C159.229 97.9999 158.929 97.8498 158.739 97.5898L138.619 70H124.039V97C124.039 97.55 123.589 98 123.039 98H105.039C104.489 98 104.039 97.55 104.039 97V3C104.039 2.45001 104.489 2.00001 105.039 2H147.039ZM241.07 20C224.5 20 211.07 33.43 211.07 50C211.07 66.57 224.5 80 241.07 80C257.64 80 271.07 66.57 271.07 50C271.07 33.43 257.64 20 241.07 20ZM345.07 20C328.5 20 315.07 33.43 315.07 50C315.07 66.57 328.5 80 345.07 80C361.64 80 375.07 66.57 375.07 50C375.07 33.43 361.64 20 345.07 20ZM124.039 50H147.048C154.768 50 161.039 43.73 161.039 36C161.039 28.27 154.769 22 147.039 22H124.039V50Z" fill="white"/>
</svg>
